<?xml version="1.0" encoding="UTF-8"?>
<svg width="1645px" height="600px" viewBox="0 0 1645 600" version="1.1" xmlns="http://www.w3.org/2000/svg" xmlns:xlink="http://www.w3.org/1999/xlink">
    <title>irHorizontal--red</title>
    <g id="irHorizontal--red" stroke="none" stroke-width="1" fill="none" fill-rule="evenodd">
        <g id="infiniteredlogo-color-darktext" transform="translate(0.000000, 205.000000)" fill="#E73536" fill-rule="nonzero">
            <path d="M95.4405737,0 C148.15095,0 190.881147,42.7301977 190.881147,95.4405734 C190.881147,148.150949 148.15095,190.881147 95.4405737,190.881147 C42.7301977,190.881147 0,148.150949 0,95.4405734 C0,42.7301977 42.7301977,0 95.4405737,0 Z M249.638964,0 C302.305414,0 345,42.7301977 345,95.4405734 C345,148.150949 302.305414,190.881147 249.638964,190.881147 C224.705789,190.881147 202.00754,181.304311 185.016224,165.62554 C195.195823,152.556709 202.576562,137.197134 206.256938,120.449075 C214.906039,135.44525 231.094871,145.537733 249.638964,145.537733 C277.283804,145.537733 299.694374,123.108472 299.694374,95.4405734 C299.694374,67.7726752 277.283804,45.3434143 249.638964,45.3434143 C230.968112,45.3434143 214.684829,55.5743454 206.080631,70.7402816 C202.282211,54.0276202 194.793855,38.7190515 184.518441,25.7182091 C201.562974,9.76541695 224.461501,0 249.638964,0 Z M95.4405737,45.3434143 C67.7726752,45.3434143 45.3434143,67.7726752 45.3434143,95.4405734 C45.3434143,123.108472 67.7726752,145.537733 95.4405737,145.537733 C123.108473,145.537733 145.537732,123.108472 145.537732,95.4405734 C145.537732,67.7726752 123.108473,45.3434143 95.4405737,45.3434143 Z M1213.1158,36 L1213.1158,60.529482 L1151.6124,60.529482 L1151.6124,85.941319 L1206.93012,85.941319 L1206.93012,109.411974 L1151.6124,109.411974 L1151.6124,135.000282 L1215.05988,135.000282 L1215.05988,159.353295 L1124.04191,159.353295 L1124.04191,36 L1213.1158,36 Z M1067.6894,59.8235975 L1067.6894,159.353295 L1040.27467,159.353295 L1040.27467,59.8235975 L1005.47904,59.8235975 L1005.47904,36 L1102.48503,36 L1102.48503,59.8235975 L1067.6894,59.8235975 Z M957.57485,36 L985.11976,36 L985.11976,159.353295 L957.57485,159.353295 L957.57485,36 Z M898.920067,36 L926.437125,36 L926.437125,159.353295 L898.920067,159.353295 L840.181729,82.058955 L840.181729,159.353295 L812.66467,159.353295 L812.66467,36 L838.417815,36 L898.920067,115.411991 L898.920067,36 Z M755.17964,36 L782.724551,36 L782.724551,159.353295 L755.17964,159.353295 L755.17964,36 Z M733.622754,36 L733.622754,60.1765395 L676.227545,60.1765395 L676.227545,86.8236745 L730.788423,86.8236745 L730.788423,111.000214 L676.227545,111.000214 L676.227545,159.353295 L648.592814,159.353295 L648.592814,36 L733.622754,36 Z M588.740426,36 L616.257485,36 L616.257485,159.353295 L588.740426,159.353295 L530.002089,82.058955 L530.002089,159.353295 L502.48503,159.353295 L502.48503,36 L528.238175,36 L588.740426,115.411991 L588.740426,36 Z M445,36 L472.54491,36 L472.54491,159.353295 L445,159.353295 L445,36 Z M1390.53152,76.9412935 C1390.53152,96.7061545 1382.71091,109.470769 1367.06944,115.23552 L1398.29341,159.353295 L1364.42334,159.353295 L1337.08032,120.00024 L1318.02841,120.00024 L1318.02841,159.353295 L1290.50898,159.353295 L1290.50898,36 L1337.25673,36 C1356.42634,36 1370.09772,39.235271 1378.27126,45.70591 C1386.44481,52.176549 1390.53152,62.5882395 1390.53152,76.9412935 Z M1356.6136,91.3700345 C1360.02414,88.311187 1361.72939,83.4582805 1361.72939,76.8111695 C1361.72939,70.164058 1359.96534,65.6052675 1356.43719,63.1346595 C1352.90904,60.664052 1346.73487,59.4287665 1337.9145,59.4287665 L1317.27493,59.4287665 L1317.27493,95.958283 L1337.38528,95.958283 C1346.79368,95.958283 1353.20305,94.428882 1356.6136,91.3700345 Z M1507.72658,36 L1507.72658,60.529482 L1446.22318,60.529482 L1446.22318,85.941319 L1501.5409,85.941319 L1501.5409,109.411974 L1446.22318,109.411974 L1446.22318,135.000282 L1509.67066,135.000282 L1509.67066,159.353295 L1418.65269,159.353295 L1418.65269,36 L1507.72658,36 Z M1627.43261,52.147105 C1639.14426,62.9118955 1645,77.8823765 1645,97.058998 C1645,116.235619 1639.29066,131.411981 1627.8718,142.58854 C1616.45294,153.7651 1599.03212,159.353295 1575.60882,159.353295 L1533.62276,159.353295 L1533.62276,36 L1577.01421,36 C1598.915,36 1615.72096,41.3823145 1627.43261,52.147105 Z M1607.67822,124.899542 C1614.41242,118.546551 1617.77947,109.311322 1617.77947,97.1935805 C1617.77947,85.075838 1614.41242,75.7523755 1607.67822,69.2229125 C1600.94402,62.6934495 1590.60864,59.4287665 1576.67178,59.4287665 L1561.38815,59.4287665 L1561.38815,134.428981 L1578.77986,134.428981 C1591.31133,134.428981 1600.94402,131.252533 1607.67822,124.899542 Z" id="Combined-Shape"></path>
        </g>
    </g>
</svg>