<?xml version="1.0" encoding="UTF-8"?>
<svg width="1645px" height="600px" viewBox="0 0 1645 600" version="1.1" xmlns="http://www.w3.org/2000/svg" xmlns:xlink="http://www.w3.org/1999/xlink">
    <title>irHorizontal--dark</title>
    <g id="irHorizontal--dark" stroke="none" stroke-width="1" fill="none" fill-rule="evenodd">
        <path d="M95.4405737,205 C148.15095,205 190.881147,247.730198 190.881147,300.440573 C190.881147,353.150949 148.15095,395.881147 95.4405737,395.881147 C42.7301977,395.881147 0,353.150949 0,300.440573 C0,247.730198 42.7301977,205 95.4405737,205 Z M249.638964,205 C302.305414,205 345,247.730198 345,300.440573 C345,353.150949 302.305414,395.881147 249.638964,395.881147 C224.705789,395.881147 202.00754,386.304311 185.016224,370.62554 C195.195823,357.556709 202.576562,342.197134 206.256938,325.449075 C214.906039,340.44525 231.094871,350.537733 249.638964,350.537733 C277.283804,350.537733 299.694374,328.108472 299.694374,300.440573 C299.694374,272.772675 277.283804,250.343414 249.638964,250.343414 C230.968112,250.343414 214.684829,260.574345 206.080631,275.740282 C202.282211,259.02762 194.793855,243.719051 184.518441,230.718209 C201.562974,214.765417 224.461501,205 249.638964,205 Z M95.4405737,250.343414 C67.7726752,250.343414 45.3434143,272.772675 45.3434143,300.440573 C45.3434143,328.108472 67.7726752,350.537733 95.4405737,350.537733 C123.108473,350.537733 145.537732,328.108472 145.537732,300.440573 C145.537732,272.772675 123.108473,250.343414 95.4405737,250.343414 Z M1213.1158,241 L1213.1158,265.529482 L1151.6124,265.529482 L1151.6124,290.941319 L1206.93012,290.941319 L1206.93012,314.411974 L1151.6124,314.411974 L1151.6124,340.000282 L1215.05988,340.000282 L1215.05988,364.353295 L1124.04191,364.353295 L1124.04191,241 L1213.1158,241 Z M1067.6894,264.823598 L1067.6894,364.353295 L1040.27467,364.353295 L1040.27467,264.823598 L1005.47904,264.823598 L1005.47904,241 L1102.48503,241 L1102.48503,264.823598 L1067.6894,264.823598 Z M957.57485,241 L985.11976,241 L985.11976,364.353295 L957.57485,364.353295 L957.57485,241 Z M898.920067,241 L926.437125,241 L926.437125,364.353295 L898.920067,364.353295 L840.181729,287.058955 L840.181729,364.353295 L812.66467,364.353295 L812.66467,241 L838.417815,241 L898.920067,320.411991 L898.920067,241 Z M755.17964,241 L782.724551,241 L782.724551,364.353295 L755.17964,364.353295 L755.17964,241 Z M733.622754,241 L733.622754,265.176539 L676.227545,265.176539 L676.227545,291.823674 L730.788423,291.823674 L730.788423,316.000214 L676.227545,316.000214 L676.227545,364.353295 L648.592814,364.353295 L648.592814,241 L733.622754,241 Z M588.740426,241 L616.257485,241 L616.257485,364.353295 L588.740426,364.353295 L530.002089,287.058955 L530.002089,364.353295 L502.48503,364.353295 L502.48503,241 L528.238175,241 L588.740426,320.411991 L588.740426,241 Z M445,241 L472.54491,241 L472.54491,364.353295 L445,364.353295 L445,241 Z M1390.53152,281.941293 C1390.53152,301.706154 1382.71091,314.470769 1367.06944,320.23552 L1398.29341,364.353295 L1364.42334,364.353295 L1337.08032,325.00024 L1318.02841,325.00024 L1318.02841,364.353295 L1290.50898,364.353295 L1290.50898,241 L1337.25673,241 C1356.42634,241 1370.09772,244.235271 1378.27126,250.70591 C1386.44481,257.176549 1390.53152,267.588239 1390.53152,281.941293 Z M1356.6136,296.370034 C1360.02414,293.311187 1361.72939,288.458281 1361.72939,281.81117 C1361.72939,275.164058 1359.96534,270.605267 1356.43719,268.134659 C1352.90904,265.664052 1346.73487,264.428766 1337.9145,264.428766 L1317.27493,264.428766 L1317.27493,300.958283 L1337.38528,300.958283 C1346.79368,300.958283 1353.20305,299.428882 1356.6136,296.370034 Z M1507.72658,241 L1507.72658,265.529482 L1446.22318,265.529482 L1446.22318,290.941319 L1501.5409,290.941319 L1501.5409,314.411974 L1446.22318,314.411974 L1446.22318,340.000282 L1509.67066,340.000282 L1509.67066,364.353295 L1418.65269,364.353295 L1418.65269,241 L1507.72658,241 Z M1627.43261,257.147105 C1639.14426,267.911896 1645,282.882376 1645,302.058998 C1645,321.235619 1639.29066,336.411981 1627.8718,347.58854 C1616.45294,358.7651 1599.03212,364.353295 1575.60882,364.353295 L1533.62276,364.353295 L1533.62276,241 L1577.01421,241 C1598.915,241 1615.72096,246.382315 1627.43261,257.147105 Z M1607.67822,329.899542 C1614.41242,323.546551 1617.77947,314.311322 1617.77947,302.19358 C1617.77947,290.075838 1614.41242,280.752375 1607.67822,274.222913 C1600.94402,267.693449 1590.60864,264.428766 1576.67178,264.428766 L1561.38815,264.428766 L1561.38815,339.428981 L1578.77986,339.428981 C1591.31133,339.428981 1600.94402,336.252533 1607.67822,329.899542 Z" id="Combined-Shape" fill="#1E1B1A" fill-rule="nonzero"></path>
    </g>
</svg>