<?xml version="1.0" encoding="UTF-8"?>
<svg width="440px" height="441px" viewBox="0 0 440 441" version="1.1" xmlns="http://www.w3.org/2000/svg" xmlns:xlink="http://www.w3.org/1999/xlink">
    <title>irMark--reversed</title>
    <g id="irMark--reversed" stroke="none" stroke-width="1" fill="none" fill-rule="evenodd">
        <path d="M121.678463,99 C188.879626,99 243.356926,153.4773 243.356926,220.678463 C243.356926,287.879626 188.879626,342.356926 121.678463,342.356926 C54.4773,342.356926 0,287.879626 0,220.678463 C0,153.4773 54.4773,99 121.678463,99 Z M318.321537,99 C385.522699,99 440,153.4773 440,220.678463 C440,287.879626 385.522699,342.356926 318.321537,342.356926 C286.507385,342.356926 257.544947,330.14729 235.864421,310.158214 C248.853353,293.496587 258.271006,273.91446 262.967079,252.562136 C274.003131,271.680959 294.659704,284.548001 318.321537,284.548001 C353.59571,284.548001 382.191075,255.952636 382.191075,220.678463 C382.191075,185.40429 353.59571,156.808925 318.321537,156.808925 C294.497961,156.808925 273.720872,169.852476 262.742116,189.18773 C257.895421,167.880535 248.340452,148.363436 235.229265,131.788489 C256.977691,111.450061 286.195679,99 318.321537,99 Z M121.678463,156.808925 C86.4042895,156.808925 57.8089249,185.40429 57.8089249,220.678463 C57.8089249,255.952636 86.4042895,284.548001 121.678463,284.548001 C156.952636,284.548001 185.548001,255.952636 185.548001,220.678463 C185.548001,185.40429 156.952636,156.808925 121.678463,156.808925 Z" id="Combined-Shape" fill="#FFFFFF" fill-rule="nonzero"></path>
    </g>
</svg>