<?xml version="1.0" encoding="utf-8"?>
<!-- Uploaded to: SVG Repo, www.svgrepo.com, Generator: SVG Repo Mixer Tools -->
<svg width="800px" height="800px" viewBox="0 0 1024 1024" class="icon" version="1.1" xmlns="http://www.w3.org/2000/svg">
    <path d="M433.2 816.8c-14.2 0-25.8-11.6-25.8-25.8 0-14.2 11.6-25.8 25.8-25.8 14.2 0 25.8 11.6 25.8 25.8 0.1 14.2-11.6 25.8-25.8 25.8z"
          fill="var(--ifm-color-primary)"/>
    <path d="M600.5 736.7c0 5.1-4.2 9.3-9.3 9.3h-316c-5.1 0-9.3-4.2-9.3-9.3V260.4c0-5.1 4.2-9.3 9.3-9.3h315.9c5.1 0 9.3 4.2 9.3 9.3v476.3h0.1z"
          fill="var(--ifm-color-primary-contrast-background)"/>
    <path d="M301.8 354.2c-13.6 0-24.7 11.1-24.7 24.7s11.1 24.7 24.7 24.7 24.7-11.1 24.7-24.7-11.1-24.7-24.7-24.7zM804 577.8c-29.4 0-53.4 24-53.4 53.4s24 53.4 53.4 53.4 53.4-24 53.4-53.4-24-53.4-53.4-53.4z"
          fill="var(--ifm-color-primary-contrast-background)"/>
    <path d="M804 557.8c-40.5 0-73.4 32.9-73.4 73.4s32.9 73.4 73.4 73.4 73.4-32.9 73.4-73.4-32.9-73.4-73.4-73.4z m-53.4 73.4c0-29.4 24-53.4 53.4-53.4s53.4 24 53.4 53.4-24 53.4-53.4 53.4c-29.5 0-53.4-24-53.4-53.4z"
          fill="var(--ifm-color-primary)"/>
    <path d="M365.7 546c-11.4 0-20.6 9.2-20.6 20.6s9.2 20.6 20.6 20.6 20.6-9.2 20.6-20.6S377 546 365.7 546zM128.3 421.3c-13.6 0-24.7 11.1-24.7 24.7s11.1 24.7 24.7 24.7S153 459.6 153 446s-11.1-24.7-24.7-24.7z"
          fill="var(--ifm-color-primary-contrast-background)"/>
    <path d="M191.4 414.6c-1.8-5.2-7.4-8-12.7-6.3l-18.7 6.3c-8.1-8.2-19.3-13.3-31.8-13.3-24.6 0-44.7 20-44.7 44.7s20 44.7 44.7 44.7 44.7-20 44.7-44.7c0-4.8-0.8-9.5-2.2-13.8l14.4-4.8c5.2-1.9 8-7.5 6.3-12.8z m-63.1 56c-13.6 0-24.7-11.1-24.7-24.7s11.1-24.7 24.7-24.7 24.7 11.1 24.7 24.7-11.1 24.7-24.7 24.7zM329.4 427.4l-3.5-11c12.3-8 20.5-21.8 20.5-37.5 0-24.6-20-44.7-44.7-44.7s-44.7 20-44.7 44.7 20 44.7 44.7 44.7c1.8 0 3.6-0.1 5.3-0.3l3.2 10.2c1.3 4.3 5.3 7 9.5 7 1 0 2-0.2 3-0.5 5.5-1.7 8.4-7.4 6.7-12.6z m-18.5-25.6c-0.4 0.1-0.8 0.3-1.1 0.4-2.5 0.9-5.2 1.4-8 1.4-13.6 0-24.7-11.1-24.7-24.7s11.1-24.7 24.7-24.7 24.7 11.1 24.7 24.7c0 10.3-6.5 19.2-15.6 22.9zM338 497.6c1 0 2-0.2 3-0.5 5.3-1.7 8.2-7.3 6.5-12.5l-6-19.1c-1.7-5.3-7.3-8.2-12.5-6.5-5.3 1.7-8.2 7.3-6.5 12.5l6 19.1c1.3 4.3 5.2 7 9.5 7zM438 505.2l-8 6.1c-4.4 3.3-5.3 9.6-1.9 14 2 2.6 5 3.9 8 3.9 2.1 0 4.2-0.7 6-2l8-6.1c4.4-3.3 5.3-9.6 1.9-14-3.3-4.4-9.6-5.2-14-1.9zM531.6 446.6c-3.3-4.4-9.6-5.3-14-1.9l-8 6.1c-4.4 3.3-5.3 9.6-1.9 14 2 2.6 5 3.9 8 3.9 2.1 0 4.2-0.7 6-2l8-6.1c4.4-3.3 5.3-9.6 1.9-14zM477.8 474.9l-8 6.1c-4.4 3.3-5.3 9.6-1.9 14 2 2.6 5 3.9 8 3.9 2.1 0 4.2-0.7 6-2l8-6.1c4.4-3.3 5.3-9.6 1.9-14-3.3-4.3-9.6-5.2-14-1.9zM398.2 535.5l-3.6 2.7c-7.4-7.5-17.6-12.2-28.9-12.2-1.7 0-3.3 0.1-4.9 0.3l-1.1-3.6c-1.7-5.3-7.3-8.2-12.6-6.5-5.3 1.7-8.2 7.3-6.5 12.6l1.5 4.9c-10.3 7.4-17 19.4-17 33 0 22.4 18.2 40.6 40.6 40.6s40.6-18.2 40.6-40.6c0-3.8-0.5-7.5-1.5-11l5.5-4.2c4.4-3.3 5.3-9.6 1.9-14-3.3-4.5-9.6-5.4-14-2z m-53.1 31.1c0-11.4 9.2-20.6 20.6-20.6s20.6 9.2 20.6 20.6-9.2 20.6-20.6 20.6-20.6-9.2-20.6-20.6z"
          fill="var(--ifm-color-primary)"/>
    <path d="M863.8 414.8H666.9v-200c0-41.8-34-75.8-75.8-75.8H275.2c-41.8 0-75.8 34-75.8 75.8v585.4c0 41.8 34 75.8 75.8 75.8h588.5c41.8 0 75.8-33.6 75.8-74.9V489.8c0.1-41.4-33.9-75-75.7-75zM591.2 836h-316c-19.7 0-35.8-16-35.8-35.8V409l2.5-0.8c5.2-1.8 8-7.4 6.3-12.7-1.3-3.9-4.9-6.5-8.7-6.8V214.9c0-19.7 16-35.8 35.8-35.8h315.9c19.7 0 35.8 16 35.8 35.8V435c-1.9 0.2-3.9 1-5.5 2.3-4.2 3.6-4.7 9.9-1.1 14.1l6.5 7.6 0.1 0.1v341.2c-0.1 19.7-16.1 35.7-35.8 35.7z m308.4-34.9c0 19.3-16 34.9-35.8 34.9H658c5.7-10.7 9-22.8 9-35.8V500.5c2.3 0 4.6-0.8 6.4-2.4 4.2-3.6 4.7-9.9 1.1-14.1l-6.5-7.6c-0.3-0.4-0.7-0.7-1.1-1.1v-20.5h196.9c19.7 0 35.8 15.7 35.8 34.9v311.4z"
          fill="var(--ifm-color-primary)"/>
    <path d="M732.9 552.5c-3.6-4.2-9.9-4.7-14.1-1.1-4.2 3.6-4.7 9.9-1.1 14.1l6.5 7.6c2 2.3 4.8 3.5 7.6 3.5 2.3 0 4.6-0.8 6.5-2.4 4.2-3.6 4.7-9.9 1.1-14.1l-6.5-7.6zM700.4 514.5c-3.6-4.2-9.9-4.7-14.1-1.1s-4.7 9.9-1.1 14.1l6.5 7.6c2 2.3 4.8 3.5 7.6 3.5 2.3 0 4.6-0.8 6.5-2.4 4.2-3.6 4.7-9.9 1.1-14.1l-6.5-7.6z"
          fill="var(--ifm-color-primary)"/>
    <path d="M493.7 223h-121c-5.5 0-10-4.5-10-10s4.5-10 10-10h121c5.5 0 10 4.5 10 10s-4.5 10-10 10z"
          fill="var(--ifm-color-primary)"/>
    <path d="M597.3 320.1c-33.6 0-60.9 27.3-60.9 60.9s27.3 60.9 60.9 60.9 60.9-27.3 60.9-60.9-27.3-60.9-60.9-60.9z"
          fill="var(--ifm-color-primary-contrast-background)"/>
    <path d="M597.3 300.1c-44.6 0-80.9 36.3-80.9 80.9 0 44.6 36.3 80.9 80.9 80.9 44.6 0 80.9-36.3 80.9-80.9 0-44.6-36.3-80.9-80.9-80.9zM536.5 381c0-33.6 27.3-60.9 60.9-60.9s60.9 27.3 60.9 60.9-27.3 60.9-60.9 60.9-60.9-27.3-60.9-60.9z"
          fill="var(--ifm-color-primary)"/>
</svg>
