<?xml version="1.0" encoding="UTF-8"?>
<svg width="1200px" height="600px" viewBox="0 0 1200 600" version="1.1" xmlns="http://www.w3.org/2000/svg" xmlns:xlink="http://www.w3.org/1999/xlink">
    <title>irVertical--reversed</title>
    <g id="irVertical--reversed" stroke="none" stroke-width="1" fill="none" fill-rule="evenodd">
        <path d="M469.461078,38 C558.75263,38 631.137725,110.385096 631.137725,199.676647 C631.137725,288.968198 558.75263,361.353294 469.461078,361.353294 C380.169527,361.353294 307.784431,288.968198 307.784431,199.676647 C307.784431,110.385096 380.169527,38 469.461078,38 Z M730.67366,38 C819.8908,38 892.21557,110.385096 892.21557,199.676647 C892.21557,288.968198 819.8908,361.353294 730.67366,361.353294 C688.43678,361.353294 649.98587,345.130102 621.202525,318.570211 C638.4468,296.431569 650.949795,270.412398 657.184365,242.041131 C671.83597,267.444701 699.259905,284.5414 730.67366,284.5414 C777.50411,284.5414 815.46769,246.546158 815.46769,199.676647 C815.46769,152.807136 777.50411,114.811893 730.67366,114.811893 C699.045175,114.811893 671.46124,132.143124 656.8857,157.834271 C650.451165,129.522967 637.765865,103.590201 620.35928,81.5667312 C649.232775,54.5426485 688.022955,38 730.67366,38 Z M469.461078,114.811893 C422.591566,114.811893 384.596324,152.807136 384.596324,199.676647 C384.596324,246.546158 422.591566,284.5414 469.461078,284.5414 C516.33059,284.5414 554.32583,246.546158 554.32583,199.676647 C554.32583,152.807136 516.33059,114.811893 469.461078,114.811893 Z M768.115805,438 L768.115805,462.529482 L706.612405,462.529482 L706.612405,487.941319 L761.93012,487.941319 L761.93012,511.411974 L706.612405,511.411974 L706.612405,537.000283 L770.05988,537.000283 L770.05988,561.353295 L679.041915,561.353295 L679.041915,438 L768.115805,438 Z M622.689405,461.823598 L622.689405,561.353295 L595.27467,561.353295 L595.27467,461.823598 L560.47904,461.823598 L560.47904,438 L657.48503,438 L657.48503,461.823598 L622.689405,461.823598 Z M512.57485,438 L540.11976,438 L540.11976,561.353295 L512.57485,561.353295 L512.57485,438 Z M453.920067,438 L481.437125,438 L481.437125,561.353295 L453.920067,561.353295 L395.181729,484.058955 L395.181729,561.353295 L367.66467,561.353295 L367.66467,438 L393.417815,438 L453.920067,517.411991 L453.920067,438 Z M310.179641,438 L337.724551,438 L337.724551,561.353295 L310.179641,561.353295 L310.179641,438 Z M288.622754,438 L288.622754,462.176539 L231.227545,462.176539 L231.227545,488.823674 L285.788423,488.823674 L285.788423,513.000214 L231.227545,513.000214 L231.227545,561.353295 L203.592815,561.353295 L203.592815,438 L288.622754,438 Z M143.740426,438 L171.257485,438 L171.257485,561.353295 L143.740426,561.353295 L85.002089,484.058955 L85.002089,561.353295 L57.48503,561.353295 L57.48503,438 L83.238175,438 L143.740426,517.411991 L143.740426,438 Z M0,438 L27.5449102,438 L27.5449102,561.353295 L0,561.353295 L0,438 Z M945.531525,478.941293 C945.531525,498.706155 937.71091,511.470769 922.069445,517.235521 L953.293415,561.353295 L919.423345,561.353295 L892.080325,522.00024 L873.02841,522.00024 L873.02841,561.353295 L845.50898,561.353295 L845.50898,438 L892.25673,438 C911.426345,438 925.09772,441.235271 933.271265,447.70591 C941.44481,454.176549 945.531525,464.588239 945.531525,478.941293 Z M911.6136,493.370034 C915.024145,490.311187 916.72939,485.458281 916.72939,478.81117 C916.72939,472.164058 914.965345,467.605268 911.437195,465.134659 C907.909045,462.664052 901.734875,461.428766 892.9145,461.428766 L872.27493,461.428766 L872.27493,497.958283 L892.38528,497.958283 C901.79368,497.958283 908.203055,496.428882 911.6136,493.370034 Z M1062.72658,438 L1062.72658,462.529482 L1001.22318,462.529482 L1001.22318,487.941319 L1056.5409,487.941319 L1056.5409,511.411974 L1001.22318,511.411974 L1001.22318,537.000283 L1064.67066,537.000283 L1064.67066,561.353295 L973.652695,561.353295 L973.652695,438 L1062.72658,438 Z M1182.43261,454.147105 C1194.14426,464.911896 1200,479.882377 1200,499.058998 C1200,518.235619 1194.29066,533.411982 1182.8718,544.58854 C1171.45294,555.7651 1154.03212,561.353295 1130.60882,561.353295 L1088.62276,561.353295 L1088.62276,438 L1132.01421,438 C1153.915,438 1170.72096,443.382315 1182.43261,454.147105 Z M1162.67822,526.899542 C1169.41242,520.546551 1172.77947,511.311323 1172.77947,499.19358 C1172.77947,487.075838 1169.41242,477.752376 1162.67822,471.222913 C1155.94402,464.693449 1145.60864,461.428766 1131.67178,461.428766 L1116.38815,461.428766 L1116.38815,536.428981 L1133.77986,536.428981 C1146.31133,536.428981 1155.94402,533.252533 1162.67822,526.899542 Z" id="Combined-Shape" fill="#FFFFFF" fill-rule="nonzero"></path>
    </g>
</svg>
