<?xml version="1.0" encoding="UTF-8"?>
<svg width="1200px" height="600px" viewBox="0 0 1200 600" version="1.1" xmlns="http://www.w3.org/2000/svg" xmlns:xlink="http://www.w3.org/1999/xlink">
    <title>irVertical</title>
    <g id="irVertical" stroke="none" stroke-width="1" fill="none" fill-rule="evenodd">
        <g id="infiniteredlogo-color-darktext" transform="translate(0.000000, 38.000000)" fill-rule="nonzero">
            <path d="M469.461078,0 C558.75263,0 631.137725,72.385096 631.137725,161.676647 C631.137725,250.968198 558.75263,323.353294 469.461078,323.353294 C380.169527,323.353294 307.784431,250.968198 307.784431,161.676647 C307.784431,72.385096 380.169527,0 469.461078,0 Z M730.67366,0 C819.8908,0 892.21557,72.385096 892.21557,161.676647 C892.21557,250.968198 819.8908,323.353294 730.67366,323.353294 C688.43678,323.353294 649.98587,307.130102 621.202525,280.570211 C638.4468,258.431569 650.949795,232.412399 657.184365,204.041131 C671.83597,229.444701 699.259905,246.5414 730.67366,246.5414 C777.50411,246.5414 815.46769,208.546158 815.46769,161.676647 C815.46769,114.807136 777.50411,76.8118935 730.67366,76.8118935 C699.045175,76.8118935 671.46124,94.1431245 656.8857,119.834271 C650.451165,91.522967 637.765865,65.590201 620.35928,43.5667312 C649.232775,16.5426485 688.022955,0 730.67366,0 Z M469.461078,76.8118935 C422.591566,76.8118935 384.596324,114.807136 384.596324,161.676647 C384.596324,208.546158 422.591566,246.5414 469.461078,246.5414 C516.33059,246.5414 554.32583,208.546158 554.32583,161.676647 C554.32583,114.807136 516.33059,76.8118935 469.461078,76.8118935 Z" id="Combined-Shape" fill="#E73536"></path>
            <path d="M768.115805,400 L768.115805,424.529482 L706.612405,424.529482 L706.612405,449.941319 L761.93012,449.941319 L761.93012,473.411974 L706.612405,473.411974 L706.612405,499.000283 L770.05988,499.000283 L770.05988,523.353295 L679.041915,523.353295 L679.041915,400 L768.115805,400 Z M622.689405,423.823598 L622.689405,523.353295 L595.27467,523.353295 L595.27467,423.823598 L560.47904,423.823598 L560.47904,400 L657.48503,400 L657.48503,423.823598 L622.689405,423.823598 Z M512.57485,400 L540.11976,400 L540.11976,523.353295 L512.57485,523.353295 L512.57485,400 Z M453.920067,400 L481.437125,400 L481.437125,523.353295 L453.920067,523.353295 L395.181729,446.058955 L395.181729,523.353295 L367.66467,523.353295 L367.66467,400 L393.417815,400 L453.920067,479.411991 L453.920067,400 Z M310.17964,400 L337.724551,400 L337.724551,523.353295 L310.17964,523.353295 L310.17964,400 Z M288.622754,400 L288.622754,424.176539 L231.227545,424.176539 L231.227545,450.823674 L285.788423,450.823674 L285.788423,475.000214 L231.227545,475.000214 L231.227545,523.353295 L203.592814,523.353295 L203.592814,400 L288.622754,400 Z M143.740426,400 L171.257485,400 L171.257485,523.353295 L143.740426,523.353295 L85.002089,446.058955 L85.002089,523.353295 L57.48503,523.353295 L57.48503,400 L83.238175,400 L143.740426,479.411991 L143.740426,400 Z M0,400 L27.5449102,400 L27.5449102,523.353295 L0,523.353295 L0,400 Z M945.531525,440.941293 C945.531525,460.706155 937.71091,473.470769 922.069445,479.235521 L953.293415,523.353295 L919.423345,523.353295 L892.080325,484.00024 L873.02841,484.00024 L873.02841,523.353295 L845.50898,523.353295 L845.50898,400 L892.25673,400 C911.426345,400 925.09772,403.235271 933.271265,409.70591 C941.44481,416.176549 945.531525,426.588239 945.531525,440.941293 Z M911.6136,455.370034 C915.024145,452.311187 916.72939,447.458281 916.72939,440.81117 C916.72939,434.164058 914.965345,429.605268 911.437195,427.134659 C907.909045,424.664052 901.734875,423.428766 892.9145,423.428766 L872.27493,423.428766 L872.27493,459.958283 L892.38528,459.958283 C901.79368,459.958283 908.203055,458.428882 911.6136,455.370034 Z M1062.72659,400 L1062.72659,424.529482 L1001.22319,424.529482 L1001.22319,449.941319 L1056.5409,449.941319 L1056.5409,473.411974 L1001.22319,473.411974 L1001.22319,499.000283 L1064.67066,499.000283 L1064.67066,523.353295 L973.652695,523.353295 L973.652695,400 L1062.72659,400 Z M1182.43261,416.147105 C1194.14426,426.911896 1200,441.882377 1200,461.058998 C1200,480.235619 1194.29066,495.411982 1182.8718,506.58854 C1171.45294,517.7651 1154.03212,523.353295 1130.60882,523.353295 L1088.62276,523.353295 L1088.62276,400 L1132.01421,400 C1153.915,400 1170.72096,405.382315 1182.43261,416.147105 Z M1162.67822,488.899542 C1169.41242,482.546551 1172.77947,473.311323 1172.77947,461.19358 C1172.77947,449.075838 1169.41242,439.752376 1162.67822,433.222913 C1155.94402,426.693449 1145.60864,423.428766 1131.67178,423.428766 L1116.38815,423.428766 L1116.38815,498.428981 L1133.77986,498.428981 C1146.31133,498.428981 1155.94402,495.252533 1162.67822,488.899542 Z" id="Combined-Shape" fill="#1E1B1A"></path>
        </g>
    </g>
</svg>