<?xml version="1.0" standalone="no"?>
<!DOCTYPE svg PUBLIC "-//W3C//DTD SVG 20010904//EN"
 "http://www.w3.org/TR/2001/REC-SVG-20010904/DTD/svg10.dtd">
<svg version="1.0" xmlns="http://www.w3.org/2000/svg"
 width="882.000000pt" height="882.000000pt" viewBox="0 0 882.000000 882.000000"
 preserveAspectRatio="xMidYMid meet">
<metadata>
Created by potrace 1.14, written by Peter Selinger 2001-2017
</metadata>
<g transform="translate(0.000000,882.000000) scale(0.100000,-0.100000)"
fill="#000000" stroke="none">
<path d="M2210 6830 c-557 -54 -1084 -304 -1485 -705 -376 -375 -614 -851
-692 -1380 -24 -165 -24 -515 0 -676 112 -750 552 -1401 1197 -1771 276 -158
580 -261 896 -304 170 -22 465 -23 634 0 940 125 1726 787 2006 1689 76 246
108 459 107 727 -1 284 -34 498 -117 753 -286 876 -1036 1508 -1963 1652 -120
19 -453 27 -583 15z m446 -1165 c451 -73 838 -400 993 -837 53 -151 66 -234
66 -423 -1 -176 -7 -226 -51 -371 -57 -192 -172 -382 -319 -529 -256 -257
-597 -389 -960 -371 -315 15 -589 130 -815 343 -412 387 -520 1003 -264 1508
106 209 275 390 478 515 131 80 318 148 461 169 98 14 313 12 411 -4z"/>
<path d="M6140 6829 c-209 -18 -492 -90 -710 -181 -196 -81 -395 -200 -575
-345 -156 -125 -150 -104 -62 -225 143 -198 246 -385 340 -623 47 -116 114
-324 128 -398 3 -12 20 7 57 63 118 179 302 337 507 436 205 98 365 130 610
121 325 -12 591 -126 826 -354 258 -250 389 -560 389 -919 0 -210 -42 -386
-135 -571 -147 -292 -401 -518 -705 -628 -309 -111 -667 -96 -969 41 -188 86
-397 262 -513 433 -35 51 -59 79 -62 70 -3 -8 -14 -50 -25 -94 -80 -316 -251
-679 -448 -949 l-65 -90 43 -38 c358 -313 816 -520 1289 -584 169 -23 464 -23
634 0 713 96 1337 492 1729 1097 190 294 318 644 369 1009 19 140 16 496 -5
645 -77 528 -316 1005 -692 1380 -517 518 -1213 768 -1955 704z"/>
</g>
</svg>
